<?xml version="1.0" encoding="UTF-8" standalone="no"?>
<!DOCTYPE svg PUBLIC "-//W3C//DTD SVG 1.1//EN"
 "http://www.w3.org/Graphics/SVG/1.1/DTD/svg11.dtd">
<!-- Generated by graphviz version 14.1.1 (20251213.1925)
 -->
<!-- Title: D Pages: 1 -->
<svg width="720pt" height="140pt"
 viewBox="0.00 0.00 720.00 140.00" xmlns="http://www.w3.org/2000/svg" xmlns:xlink="http://www.w3.org/1999/xlink">
<g id="graph0" class="graph" transform="scale(0.488506 0.488506) rotate(0) translate(4 283.5)">
<title>D</title>
<polygon fill="white" stroke="none" points="-4,4 -4,-283.5 1469.88,-283.5 1469.88,4 -4,4"/>
<text xml:space="preserve" text-anchor="middle" x="732.94" y="-262.2" font-family="Times,serif" font-size="14.00">unfoc.py Old Data Flow</text>
<g id="clust1" class="cluster">
<title>cluster_in</title>
<polygon fill="none" stroke="black" points="7.57,-78 7.57,-209 82.07,-209 82.07,-78 7.57,-78"/>
<text xml:space="preserve" text-anchor="middle" x="44.82" y="-191.7" font-family="Times,serif" font-size="14.00">Input Files</text>
</g>
<g id="clust2" class="cluster">
<title>cluster_out</title>
<polygon fill="none" stroke="black" points="1291.07,-8 1291.07,-247 1457.88,-247 1457.88,-8 1291.07,-8"/>
<text xml:space="preserve" text-anchor="middle" x="1374.48" y="-15.2" font-family="Times,serif" font-size="14.00">Output Files</text>
</g>
<!-- bxds -->
<g id="node1" class="node">
<title>bxds</title>
<ellipse fill="none" stroke="black" cx="44.32" cy="-104" rx="28.32" ry="18"/>
<text xml:space="preserve" text-anchor="middle" x="44.32" y="-98.95" font-family="Times,serif" font-size="14.00">bxds</text>
</g>
<!-- read_RADnhx_gen -->
<g id="node3" class="node">
<title>read_RADnhx_gen</title>
<polygon fill="none" stroke="black" points="231.07,-149 110.07,-149 110.07,-113 231.07,-113 231.07,-149"/>
<text xml:space="preserve" text-anchor="middle" x="170.57" y="-125.95" font-family="Times,serif" font-size="14.00">read_RADnhx_gen</text>
</g>
<!-- bxds&#45;&gt;read_RADnhx_gen -->
<g id="edge1" class="edge">
<title>bxds&#45;&gt;read_RADnhx_gen</title>
<path fill="none" stroke="black" d="M71.67,-109.73C79.8,-111.49 89.16,-113.53 98.81,-115.62"/>
<polygon fill="black" stroke="black" points="97.78,-118.98 108.29,-117.68 99.26,-112.14 97.78,-118.98"/>
</g>
<!-- ct -->
<g id="node2" class="node">
<title>ct</title>
<ellipse fill="none" stroke="black" cx="44.32" cy="-158" rx="27" ry="18"/>
<text xml:space="preserve" text-anchor="middle" x="44.32" y="-152.95" font-family="Times,serif" font-size="14.00">ct</text>
</g>
<!-- ct&#45;&gt;read_RADnhx_gen -->
<g id="edge2" class="edge">
<title>ct&#45;&gt;read_RADnhx_gen</title>
<path fill="none" stroke="black" d="M70.46,-152.54C78.85,-150.71 88.64,-148.59 98.75,-146.39"/>
<polygon fill="black" stroke="black" points="99.29,-149.85 108.32,-144.31 97.8,-143.01 99.29,-149.85"/>
</g>
<!-- Trace1 -->
<g id="node4" class="node">
<title>Trace1</title>
<polygon fill="none" stroke="black" points="267.07,-145.75 267.07,-176.25 311.82,-176.25 311.82,-145.75 267.07,-145.75"/>
<text xml:space="preserve" text-anchor="start" x="274.07" y="-155.95" font-family="Times,serif" font-size="14.00">Trace</text>
</g>
<!-- read_RADnhx_gen&#45;&gt;Trace1 -->
<g id="edge3" class="edge">
<title>read_RADnhx_gen&#45;&gt;Trace1</title>
<path fill="none" stroke="black" d="M231.38,-146.35C239.96,-148.55 248.49,-150.75 256.25,-152.74"/>
<polygon fill="black" stroke="black" points="255.31,-156.11 265.87,-155.21 257.05,-149.33 255.31,-156.11"/>
</g>
<!-- Trace4 -->
<g id="node7" class="node">
<title>Trace4</title>
<polygon fill="none" stroke="black" points="1042.57,-124.75 1042.57,-155.25 1145.07,-155.25 1145.07,-124.75 1042.57,-124.75"/>
<text xml:space="preserve" text-anchor="start" x="1049.57" y="-134.95" font-family="Times,serif" font-size="14.00">IncoherentTrace</text>
</g>
<!-- read_RADnhx_gen&#45;&gt;Trace4 -->
<!-- stacks_gen -->
<g id="node8" class="node">
<title>stacks_gen</title>
<polygon fill="none" stroke="black" points="423.07,-187 347.82,-187 347.82,-151 423.07,-151 423.07,-187"/>
<text xml:space="preserve" text-anchor="middle" x="385.45" y="-163.95" font-family="Times,serif" font-size="14.00">stacks_gen</text>
</g>
<!-- Trace1&#45;&gt;stacks_gen -->
<g id="edge4" class="edge">
<title>Trace1&#45;&gt;stacks_gen</title>
<path fill="none" stroke="black" d="M311.78,-162.82C319.08,-163.44 327.58,-164.16 336.14,-164.89"/>
<polygon fill="black" stroke="black" points="335.56,-168.35 345.82,-165.71 336.15,-161.38 335.56,-168.35"/>
</g>
<!-- Trace2 -->
<g id="node5" class="node">
<title>Trace2</title>
<polygon fill="none" stroke="black" points="459.07,-176 459.07,-206.5 560.07,-206.5 560.07,-176 459.07,-176"/>
<text xml:space="preserve" text-anchor="start" x="494.2" y="-186.2" font-family="Times,serif" font-size="14.00">Trace</text>
<polygon fill="none" stroke="black" points="459.07,-145.5 459.07,-176 560.07,-176 560.07,-145.5 459.07,-145.5"/>
<text xml:space="preserve" text-anchor="start" x="466.07" y="-155.7" font-family="Times,serif" font-size="14.00">(coherent stack)</text>
</g>
<!-- denoise_and_dechirp_gen -->
<g id="node9" class="node">
<title>denoise_and_dechirp_gen</title>
<polygon fill="none" stroke="black" points="753.07,-194 596.07,-194 596.07,-158 753.07,-158 753.07,-194"/>
<text xml:space="preserve" text-anchor="middle" x="674.57" y="-170.95" font-family="Times,serif" font-size="14.00">denoise_and_dechirp_gen</text>
</g>
<!-- Trace2&#45;&gt;denoise_and_dechirp_gen -->
<g id="edge6" class="edge">
<title>Trace2&#45;&gt;denoise_and_dechirp_gen</title>
<path fill="none" stroke="black" d="M559.92,-176C567.71,-176 575.97,-176 584.35,-176"/>
<polygon fill="black" stroke="black" points="584.28,-179.5 594.28,-176 584.28,-172.5 584.28,-179.5"/>
</g>
<!-- Trace3 -->
<g id="node6" class="node">
<title>Trace3</title>
<polygon fill="none" stroke="black" points="789.07,-176 789.07,-206.5 865.32,-206.5 865.32,-176 789.07,-176"/>
<text xml:space="preserve" text-anchor="start" x="811.82" y="-186.2" font-family="Times,serif" font-size="14.00">Trace</text>
<polygon fill="none" stroke="black" points="789.07,-145.5 789.07,-176 865.32,-176 865.32,-145.5 789.07,-145.5"/>
<text xml:space="preserve" text-anchor="start" x="796.07" y="-155.7" font-family="Times,serif" font-size="14.00">(dechirped)</text>
</g>
<!-- inco_stacks_gen -->
<g id="node10" class="node">
<title>inco_stacks_gen</title>
<polygon fill="none" stroke="black" points="1006.57,-187 901.32,-187 901.32,-151 1006.57,-151 1006.57,-187"/>
<text xml:space="preserve" text-anchor="middle" x="953.95" y="-163.95" font-family="Times,serif" font-size="14.00">inco_stacks_gen</text>
</g>
<!-- Trace3&#45;&gt;inco_stacks_gen -->
<g id="edge8" class="edge">
<title>Trace3&#45;&gt;inco_stacks_gen</title>
<path fill="none" stroke="black" d="M865.29,-173.92C872.99,-173.49 881.31,-173.02 889.66,-172.55"/>
<polygon fill="black" stroke="black" points="889.69,-176.05 899.48,-172 889.3,-169.07 889.69,-176.05"/>
</g>
<!-- PIK1Output -->
<g id="node11" class="node">
<title>PIK1Output</title>
<polygon fill="none" stroke="black" points="1263.07,-158 1181.07,-158 1181.07,-122 1263.07,-122 1263.07,-158"/>
<text xml:space="preserve" text-anchor="middle" x="1222.07" y="-134.95" font-family="Times,serif" font-size="14.00">PIK1Output</text>
</g>
<!-- Trace4&#45;&gt;PIK1Output -->
<g id="edge10" class="edge">
<title>Trace4&#45;&gt;PIK1Output</title>
<path fill="none" stroke="black" d="M1144.72,-140C1152.87,-140 1161.33,-140 1169.52,-140"/>
<polygon fill="black" stroke="black" points="1169.34,-143.5 1179.34,-140 1169.34,-136.5 1169.34,-143.5"/>
</g>
<!-- stacks_gen&#45;&gt;Trace2 -->
<g id="edge5" class="edge">
<title>stacks_gen&#45;&gt;Trace2</title>
<path fill="none" stroke="black" d="M423.42,-171.12C431.14,-171.56 439.48,-172.04 447.8,-172.52"/>
<polygon fill="black" stroke="black" points="447.4,-176 457.58,-173.08 447.8,-169.01 447.4,-176"/>
</g>
<!-- denoise_and_dechirp_gen&#45;&gt;Trace3 -->
<g id="edge7" class="edge">
<title>denoise_and_dechirp_gen&#45;&gt;Trace3</title>
<path fill="none" stroke="black" d="M753.53,-176C761.82,-176 770.08,-176 777.88,-176"/>
<polygon fill="black" stroke="black" points="777.82,-179.5 787.82,-176 777.82,-172.5 777.82,-179.5"/>
</g>
<!-- inco_stacks_gen&#45;&gt;Trace4 -->
<g id="edge9" class="edge">
<title>inco_stacks_gen&#45;&gt;Trace4</title>
<path fill="none" stroke="black" d="M1007.07,-158.04C1015.14,-156.34 1023.54,-154.57 1031.79,-152.84"/>
<polygon fill="black" stroke="black" points="1032.35,-156.29 1041.42,-150.81 1030.91,-149.44 1032.35,-156.29"/>
</g>
<!-- MagLoResIncoN -->
<g id="node12" class="node">
<title>MagLoResIncoN</title>
<ellipse fill="none" stroke="black" cx="1374.48" cy="-59" rx="75.41" ry="18"/>
<text xml:space="preserve" text-anchor="middle" x="1374.48" y="-53.95" font-family="Times,serif" font-size="14.00">MagLoResIncoN</text>
</g>
<!-- PIK1Output&#45;&gt;MagLoResIncoN -->
<g id="edge12" class="edge">
<title>PIK1Output&#45;&gt;MagLoResIncoN</title>
<path fill="none" stroke="black" d="M1242.27,-121.68C1255.22,-110.14 1273.15,-95.65 1291.07,-86 1297.75,-82.4 1304.99,-79.18 1312.32,-76.31"/>
<polygon fill="black" stroke="black" points="1313.45,-79.63 1321.63,-72.9 1311.04,-73.05 1313.45,-79.63"/>
</g>
<!-- PhsLoResIncoN -->
<g id="node13" class="node">
<title>PhsLoResIncoN</title>
<ellipse fill="none" stroke="black" cx="1374.48" cy="-113" rx="71.31" ry="18"/>
<text xml:space="preserve" text-anchor="middle" x="1374.48" y="-107.95" font-family="Times,serif" font-size="14.00">PhsLoResIncoN</text>
</g>
<!-- PIK1Output&#45;&gt;PhsLoResIncoN -->
<g id="edge13" class="edge">
<title>PIK1Output&#45;&gt;PhsLoResIncoN</title>
<path fill="none" stroke="black" d="M1263.38,-132.76C1275.94,-130.51 1290.18,-127.95 1304.14,-125.45"/>
<polygon fill="black" stroke="black" points="1304.53,-128.93 1313.75,-123.72 1303.29,-122.04 1304.53,-128.93"/>
</g>
<!-- MetaN -->
<g id="node14" class="node">
<title>MetaN</title>
<ellipse fill="none" stroke="black" cx="1374.48" cy="-167" rx="29.34" ry="18"/>
<text xml:space="preserve" text-anchor="middle" x="1374.48" y="-161.95" font-family="Times,serif" font-size="14.00">meta</text>
</g>
<!-- PIK1Output&#45;&gt;MetaN -->
<g id="edge14" class="edge">
<title>PIK1Output&#45;&gt;MetaN</title>
<path fill="none" stroke="black" d="M1263.38,-147.24C1285.5,-151.21 1312.81,-156.11 1334.69,-160.04"/>
<polygon fill="black" stroke="black" points="1333.96,-163.46 1344.42,-161.78 1335.19,-156.57 1333.96,-163.46"/>
</g>
<!-- TraceNumbersN -->
<g id="node15" class="node">
<title>TraceNumbersN</title>
<ellipse fill="none" stroke="black" cx="1374.48" cy="-221" rx="72.85" ry="18"/>
<text xml:space="preserve" text-anchor="middle" x="1374.48" y="-215.95" font-family="Times,serif" font-size="14.00">TraceNumbersN</text>
</g>
<!-- PIK1Output&#45;&gt;TraceNumbersN -->
<g id="edge15" class="edge">
<title>PIK1Output&#45;&gt;TraceNumbersN</title>
<path fill="none" stroke="black" d="M1242.27,-158.32C1255.22,-169.86 1273.15,-184.35 1291.07,-194 1297.92,-197.69 1305.36,-200.98 1312.87,-203.9"/>
<polygon fill="black" stroke="black" points="1311.47,-207.12 1322.07,-207.25 1313.87,-200.54 1311.47,-207.12"/>
</g>
</g>
</svg>
